<?xml version="1.0" encoding="UTF-8" standalone="no"?><!DOCTYPE svg PUBLIC "-//W3C//DTD SVG 1.1//EN" "http://www.w3.org/Graphics/SVG/1.1/DTD/svg11.dtd"><svg width="100%" height="100%" viewBox="0 0 534 534" version="1.1" xmlns="http://www.w3.org/2000/svg" xmlns:xlink="http://www.w3.org/1999/xlink" xml:space="preserve" xmlns:serif="http://www.serif.com/" style="fill-rule:evenodd;clip-rule:evenodd;stroke-linejoin:round;stroke-miterlimit:2;"><g><path d="M183.532,391.556c-0.638,-0.034 -1.227,0.48 -1.865,0.446c-3.293,-0.175 -3.158,-0.8 -3.429,-0.728c-0.31,0.083 -21.127,36.167 -23.53,38.383c-3.753,3.46 -4.464,2.962 -73.458,2.978c-58.323,0.013 -59.221,0.362 -60.796,-2.416c-3.143,-5.545 0.059,-5.462 3.765,-10.638c2.742,-3.829 14.538,-23.513 15.774,-25.575c7.76,-12.95 7.823,-12.81 15.629,-25.633c36.576,-60.083 36.234,-60.237 39.63,-65.319c1.395,-2.087 110.435,-180.277 120.025,-196.391c0.989,-1.661 12.291,-20.654 12.385,-20.749c1.039,-1.055 5.832,-2.81 6.47,-2.646c1.352,0.349 9.727,17.923 14.815,26.545c3.307,5.604 23.999,44.88 64.546,117.831c22.274,40.074 21.434,40.525 23.816,43.717c2.021,2.707 5.806,1.427 6.292,1.262c2.15,-0.727 22.608,-34.838 26.298,-40.667c6.041,-9.542 7.084,-16.768 14.947,-8.589c1.1,1.144 13.527,21.632 14.678,23.529c5.395,8.894 5.899,8.483 11.304,17.432c5.268,8.722 102.865,161.836 103.12,162.87c0.287,1.166 -1.65,4.741 -2.897,5.182c-0.436,0.154 -0.453,0.283 -54.802,0.265c-170.722,-0.059 -170.926,0.291 -174.978,-1.436c-4.956,-2.112 -6.488,-8.681 -63.968,-115.885c-8.948,-16.688 -0.146,-16.918 13.799,-42.539c0.306,-0.562 2.985,-5.485 7.51,-2.764c0.723,0.435 4.94,9.971 10.266,18.99c4.59,7.774 25.154,46.874 29.396,54.051c8.331,14.095 7.197,16.935 11.333,17.162c6.566,0.362 5.157,-2.439 8.026,-8.305c6.254,-12.785 19.795,-27.667 17.75,-37.532c-0.7,-3.376 -0.903,-3.286 -20.073,-38.131c-45.417,-82.554 -45.113,-82.712 -49.175,-89.826c-4.665,-8.171 -4.198,-8.303 -8.593,-16.511c-0.457,-0.853 -4.602,-8.596 -9.381,-7.633c-0.433,0.087 -8.853,13.154 -9.676,14.64c-4.14,7.475 -10.256,17.694 -10.274,17.739c-4.832,12.393 13.901,34.396 11.779,45.225c-0.786,4.012 -18.047,32.043 -18.475,32.659c-6.172,8.878 -27.231,19.89 -44.573,30.676c-1.648,1.025 -18.739,11.654 -20.563,12.869c-6.944,4.624 -5.672,5.768 -12.391,15.828c-7.009,10.493 -9.307,16.616 -18.581,28.098c-0.503,0.622 -8.42,10.425 0.816,9.967c1.591,-0.079 7.693,-4.983 8.314,-5.482c10.432,-8.384 22.608,-15.947 24.651,-17.216c41.784,-25.953 43.358,-30.743 50.206,-24.214c1.937,1.847 28.405,51.492 34.527,61.771c6.419,10.779 10.205,17.853 5.508,24.186c-0.034,0.046 -16.701,17.289 -18.436,18.933c-2.947,2.793 -6.674,2.489 -8.705,-1.051c-11.128,-19.4 -17.376,-32.47 -18.757,-35.359Zm150.596,-40.325c-9.828,15.017 -9.246,15.316 -19.62,29.975c-0.44,0.622 -4.536,6.41 -4.415,8.432c0.053,0.887 0.671,1.815 1.454,2.236c0.563,0.302 1.265,-0.682 1.861,-0.454c0.618,0.236 0.504,1.54 1.162,1.607c3.409,0.351 2.96,-1.575 16.168,-5.298c6.041,-1.703 11.93,-1.834 18.132,-9.979c1.432,-1.88 25.043,-40.261 25.327,-40.34c4.487,-1.25 7.559,5.088 7.901,5.793c6.677,13.776 15.671,26.566 17.299,27.894c1.715,1.399 16.95,9.159 31.805,18.639c1.468,0.937 2.771,2.263 4.445,2.748c3.931,1.138 4.135,-2.425 4.158,-2.826c0.289,-5.049 -4.331,-7.55 -12.265,-21.172c-3.783,-6.494 -46.704,-81.324 -47.272,-81.641c-4.486,-2.508 -7.114,2.122 -7.426,2.671c-2.877,5.069 -5.385,9.486 -38.713,61.715Z" style="fill:#fcbf49;"/><path d="M286.013,124.716c6.352,-1.22 29.106,-7.451 46.565,18.197c9.115,13.39 9.912,34.312 -5.256,51.047c-8.749,9.653 -13.031,10.099 -19.571,-1.148c-1.494,-2.568 -10.586,-18.205 -17.898,-32.541c-4.207,-8.25 -9.606,-18.118 -10.462,-19.683c-6.183,-11.301 -1.239,-12.03 6.622,-15.873Z" style="fill:#f77f00;"/></g></svg>