<?xml version="1.0" encoding="UTF-8" standalone="no"?><!DOCTYPE svg PUBLIC "-//W3C//DTD SVG 1.1//EN" "http://www.w3.org/Graphics/SVG/1.1/DTD/svg11.dtd"><svg width="100%" height="100%" viewBox="0 0 9271 3317" version="1.1" xmlns="http://www.w3.org/2000/svg" xmlns:xlink="http://www.w3.org/1999/xlink" xml:space="preserve" xmlns:serif="http://www.serif.com/" style="fill-rule:evenodd;clip-rule:evenodd;stroke-linejoin:round;stroke-miterlimit:2;"><g><g><path d="M4954.729,2879.058c-85.071,-22.571 -137.675,-57.117 -193.75,-126.737c-126.737,-157.467 -186.458,-348.613 -186.458,-593.054c0,-209.2 51.562,-380.208 150.346,-501.562c17.188,-21.7 27.083,-38.887 20.833,-38.887c-6.425,0 3.646,-16.321 23.612,-36.283c60.592,-62.5 218.229,-97.742 388.367,-87.846c163.021,9.896 257.117,48.958 347.571,141.321c62.5,63.367 97.742,125 127.604,221.875c22.571,72.396 23.612,101.387 6.425,119.446c-11.804,10.938 -13.542,9.896 -16.321,-7.292c-1.738,-10.938 -7.292,-20.833 -12.675,-22.571c-6.425,-1.737 -8.158,38.021 -5.383,127.604c8.158,252.604 -47.917,452.604 -172.05,615.625c-116.842,155.729 -314.237,232.637 -477.95,188.367l-0.175,0l0.004,-0.004Zm241.667,-315.104c87.846,-42.533 168.404,-158.508 201.908,-289.758c59.721,-233.508 -34.375,-487.154 -214.583,-575.867c-47.917,-23.612 -63.367,-27.083 -97.742,-22.571c-92.362,12.675 -200,101.387 -248.092,203.646c-125.867,274.304 -24.479,619.271 206.425,705.208c41.667,15.45 92.363,8.158 152.083,-20.833l0,0.175Z" style="fill:#2da72e;fill-rule:nonzero;"/><path d="M1183.025,2859.096c-75.175,-42.533 -123.958,-115.971 -157.467,-236.283c-17.188,-64.237 -24.479,-180.208 -12.675,-210.938c2.779,-8.158 12.675,-14.408 21.7,-14.408c19.096,0 27.083,-17.188 27.083,-58.854c0,-32.637 11.804,-40.8 54.342,-40.8l25.346,0l-0.867,79.688c-2.779,132.117 38.888,237.154 118.575,297.917c47.05,35.242 68.75,37.154 111.283,8.158c30.729,-20.833 47.05,-47.917 105.904,-174.654c11.804,-25.346 18.054,-29.863 46.179,-29.863c30.729,0 33.508,3.646 53.471,47.917c19.967,47.05 27.083,105.904 11.804,105.904c-4.513,0 -9.896,-6.425 -13.542,-13.542c-7.292,-19.096 -23.612,-17.188 -23.612,2.779c0,29.863 -62.5,145.833 -100.521,187.325c-53.471,57.987 -94.096,76.908 -163.887,76.908c-46.179,0 -66.146,-5.383 -103.125,-27.083l0,-0.175l0.008,0.004Z" style="fill:#2da72e;fill-rule:nonzero;"/><path d="M1183.025,2859.096c-55.208,-31.771 -93.229,-76.908 -130.383,-155.729c-59.721,-127.604 -69.792,-311.458 -22.571,-425.521c10.938,-28.125 -18.054,-19.096 -67.883,20.833c-82.467,65.104 -149.304,171.179 -199.133,315.971l-23.613,67.883l-152.083,2.779l-152.083,1.737l-25.346,-27.083c-30.729,-33.508 -39.758,-70.658 -34.375,-143.925l3.646,-53.471l-38.021,-6.425c-54.342,-8.158 -80.554,-38.887 -80.554,-96.008c0,-56.075 29.863,-90.45 86.979,-97.742l38.887,-5.383l10.938,-58.854c6.425,-32.638 23.613,-103.125 38.887,-157.467c15.45,-54.342 28.125,-106.771 28.125,-115.971c0,-9.029 -13.542,-37.154 -30.729,-61.633c-52.429,-76.908 -51.562,-158.508 4.513,-220.833c30.729,-35.242 126.738,-70.658 239.062,-87.846c116.842,-18.054 163.021,-25.346 208.158,-35.242c25.346,-5.383 102.258,-19.967 172.05,-31.771c69.792,-12.675 207.292,-38.021 306.075,-57.117l179.342,-33.508l43.404,-58.854c92.362,-123.092 372.05,-375.696 526.042,-475.346c131.25,-85.071 311.458,-167.533 445.488,-202.779c38.021,-9.896 89.583,-27.083 114.929,-36.283c74.304,-29.863 488.887,-136.633 528.646,-136.633c10.938,0 49.825,-8.158 85.938,-18.054c35.242,-9.896 78.821,-18.054 96.008,-18.054c17.188,0 50.696,-3.646 75.175,-8.158c23.613,-5.383 76.042,-15.45 115.971,-23.613c301.562,-58.854 800.346,-51.562 1386.113,18.054c411.113,49.825 621.008,114.929 735.071,228.125c53.471,53.471 65.104,56.075 169.271,38.887c96.875,-15.45 346.7,-36.283 432.812,-36.283c139.408,0 230.904,33.508 316.842,116.842l56.075,53.471l72.396,-7.292c507.988,-54.342 904.513,-18.054 1234.896,114.062l105.033,42.533l140.279,-10.938c390.279,-28.125 523.263,-5.383 624.654,105.033c60.592,66.146 83.333,128.646 87.846,242.708c3.646,75.175 0.867,99.654 -14.408,143.925c-23.613,65.104 -54.342,107.812 -89.583,122.221c-31.771,13.542 -47.05,59.721 -47.05,143.925l0,52.429l60.592,52.429c114.929,99.654 155.729,170.137 163.021,286.112c6.425,85.938 -1.737,120.488 -62.5,274.304c-49.825,127.604 -81.425,172.05 -139.408,197.396c-43.404,19.967 -201.908,39.758 -415.625,52.429c-247.221,15.45 -1280.208,32.638 -1934.721,32.638c-598.438,0 -603.821,0 -629.167,-19.096c-81.425,-60.592 -115.971,-153.992 -156.596,-425.521c-15.45,-104.167 -31.771,-205.554 -36.283,-225.346c-4.512,-19.967 -10.938,-50.696 -13.542,-67.883c-2.779,-17.188 -11.804,-51.562 -19.967,-76.908c-79.688,-248.092 -294.271,-375.696 -573.958,-340.45c-131.25,16.321 -189.237,38.021 -236.283,91.492c-56.075,62.5 -61.633,70.658 -61.633,84.2c0,7.292 -5.383,18.054 -12.675,23.612c-14.408,11.804 -28.125,57.988 -25.346,86.979c0.867,9.896 -0.867,12.675 -3.646,7.292c-3.646,-9.029 -7.292,-9.029 -16.321,0c-17.188,18.054 -30.729,59.721 -50.696,157.467c-41.667,209.2 -5.383,460.763 92.363,636.458c66.146,119.446 201.908,253.471 256.25,253.471c8.158,0 12.675,3.646 9.029,8.158c-2.779,5.383 -20.833,4.513 -45.312,-3.646c-151.217,-45.312 -286.113,-219.096 -345.833,-443.575c-20.833,-80.554 -23.612,-106.771 -23.612,-244.446c0,-135.762 2.779,-163.887 22.571,-240.8c27.083,-99.654 79.688,-210.071 133.158,-277.95c35.242,-44.446 36.283,-47.05 16.321,-47.05c-29.862,0 -172.05,96.008 -252.604,171.179c-76.908,71.529 -165.625,181.075 -224.479,277.083c-100.521,163.021 -198.262,418.229 -235.417,611.979l-19.967,105.904l-735.071,6.425c-403.821,3.646 -907.117,4.512 -1119.096,2.779c-370.313,-2.779 -386.633,-3.646 -426.388,-21.7c-23.612,-10.938 -58.854,-34.375 -78.821,-53.471c-36.283,-31.771 -49.825,-55.208 -93.229,-160.242c-11.804,-28.992 -24.479,-52.429 -27.083,-52.429c-2.779,0 -11.804,13.542 -19.096,29.862c-80.554,173.783 -102.258,196.529 -185.592,196.529c-81.425,0 -150.346,-67.012 -183.854,-180.208c-23.612,-76.908 -35.242,-170.138 -27.083,-201.908c5.383,-18.054 4.513,-22.571 -3.646,-19.967c-6.425,2.779 -12.675,19.967 -13.542,38.021c-0.867,18.054 -2.779,38.021 -2.779,42.533c-0.867,5.383 -9.029,17.188 -18.054,26.217c-16.321,17.188 -16.321,17.188 -16.321,0c0,-14.408 -1.738,-15.45 -9.029,-3.646c-24.479,38.021 5.383,187.325 56.075,282.467c28.992,55.208 105.904,138.542 134.896,147.571c9.896,3.646 15.45,9.896 12.675,14.408c-8.158,11.804 -13.542,10.938 -64.237,-19.096l-0.175,0.346l0.004,-0.008Zm2779.513,-128.646c1.738,-6.425 11.804,-56.075 21.7,-111.283c38.021,-195.488 118.575,-402.95 227.258,-581.25c39.758,-66.146 60.592,-94.096 163.021,-219.096c18.054,-21.7 73.262,-74.304 123.092,-115.971c71.529,-60.592 116.842,-89.583 215.45,-138.542c159.375,-78.821 249.825,-102.258 395.658,-102.258c157.467,0 266.146,33.508 369.446,114.929c69.792,54.342 114.929,115.971 155.729,211.804l34.375,78.821l130.383,-2.779c243.575,-4.513 509.721,-57.117 707.117,-139.408c60.592,-25.346 165.625,-65.104 232.637,-88.717c67.013,-22.571 123.092,-44.446 123.958,-47.917c0.867,-2.779 -19.967,-27.083 -47.917,-53.471c-30.729,-28.992 -58.854,-67.013 -74.304,-99.654c-28.125,-59.721 -42.533,-65.104 -92.363,-30.729c-17.188,11.804 -39.758,23.613 -49.825,26.217c-9.896,3.646 -127.604,14.408 -262.5,24.479c-134.029,9.896 -267.013,19.967 -294.271,23.612c-46.179,5.383 -48.958,4.513 -35.242,-9.896c15.45,-16.321 94.096,-30.729 371.179,-68.75l77.779,-10.938l-29.863,-44.446c-40.8,-59.721 -57.987,-122.221 -57.987,-207.292c0,-165.625 78.821,-288.888 184.721,-288.888c18.054,0 32.637,-3.646 32.637,-9.029c0,-15.45 -71.529,-61.633 -125.867,-81.425c-107.812,-40.8 -241.667,-34.375 -806.596,37.154c-116.842,15.45 -334.896,40.8 -484.375,57.988c-149.304,17.188 -323.263,37.154 -386.633,45.312c-279.688,32.637 -636.458,91.492 -840.104,136.633c-57.117,12.675 -130.383,28.125 -163.021,35.242c-121.354,25.346 -348.613,86.979 -358.508,97.742c-5.383,6.425 -17.188,39.758 -25.346,74.304c-8.158,35.242 -17.188,71.529 -20.833,80.554c-3.646,13.542 -1.738,16.321 10.938,10.938c8.158,-2.779 134.029,-31.771 279.688,-64.238c267.012,-58.854 646.354,-126.738 860.938,-153.992c65.104,-8.158 160.242,-20.833 212.675,-28.992c52.429,-8.158 134.029,-17.188 181.075,-20.833c47.05,-3.646 114.929,-11.804 149.304,-17.188c148.438,-22.571 527.779,-57.117 674.479,-59.721c161.979,-3.646 161.113,1.738 -4.512,21.7c-100.521,12.675 -200,25.346 -312.325,41.667c-52.429,7.292 -134.029,18.054 -181.075,23.613c-280.729,32.637 -459.029,55.208 -538.717,67.012c-88.717,13.542 -228.125,34.375 -334.896,49.825c-107.812,15.45 -161.979,27.083 -171.179,36.283c-4.512,4.512 -33.508,9.029 -63.367,9.029c-30.729,0.867 -96.008,9.029 -145.833,19.096c-49.825,9.896 -113.196,21.7 -140.279,26.217c-76.042,11.804 -309.55,62.5 -330.383,71.529c-9.896,4.513 -46.179,11.804 -79.688,17.188c-33.508,5.383 -67.012,13.542 -73.262,19.096c-19.967,16.321 -33.508,207.292 -32.637,459.029c0,239.062 5.383,322.221 32.637,494.271c23.613,155.729 4.512,217.362 -82.467,260.762l-45.312,22.571l-389.238,0c-299.654,0 -398.438,-2.779 -429.167,-11.804c-38.021,-11.804 -93.229,-55.208 -101.387,-81.425c-2.779,-8.158 -47.05,-13.542 -155.729,-19.096c-84.2,-4.513 -154.862,-10.938 -157.467,-13.542c-9.896,-9.896 19.967,-13.542 153.992,-19.096c131.25,-6.425 134.029,-7.292 127.604,-26.217c-11.804,-39.758 -19.096,-41.667 -143.925,-41.667c-219.096,0 -239.062,-21.7 -29.862,-31.771c76.042,-3.646 141.321,-8.158 143.925,-9.896c3.646,-1.738 3.646,-13.542 0.867,-26.217c-3.646,-21.7 -7.292,-22.571 -60.592,-22.571c-30.729,0 -93.229,-2.779 -139.408,-6.425c-70.658,-4.512 -81.425,-7.292 -70.658,-18.054c8.158,-9.029 48.958,-14.408 134.029,-18.054l121.354,-5.383l-3.646,-163.021c-2.779,-161.979 4.513,-257.988 31.771,-394.792c8.158,-36.283 11.804,-67.883 9.029,-70.658c-9.029,-9.896 -206.425,143.925 -326.908,254.342c-45.312,40.8 -104.167,85.071 -131.25,98.613c-46.179,21.7 -163.021,43.404 -312.325,57.117c-300.521,28.125 -459.896,43.404 -588.542,57.987c-84.2,9.896 -212.675,24.479 -285.242,31.771c-163.887,18.054 -171.179,19.967 -181.946,47.05c-18.054,48.958 -12.675,54.342 53.471,58.854c90.45,6.425 123.958,35.242 123.958,106.771c0,42.533 -16.321,72.396 -50.696,95.138c-45.312,29.862 -74.304,80.554 -78.821,137.675l-4.513,49.825l102.258,-3.646l101.388,-4.512l28.992,-77.779c38.021,-101.388 77.779,-166.667 148.438,-242.708c111.283,-121.354 235.417,-169.271 388.367,-152.083c82.467,9.029 141.321,34.375 190.971,83.333c49.825,47.917 82.467,112.325 130.383,253.471c49.825,148.438 94.096,210.938 168.404,232.638c13.542,4.512 514.237,8.158 1113.542,8.158c863.717,0.867 1089.062,-1.738 1091.842,-9.896l0.346,-0.346l0.004,0Zm-2574.825,-67.013c59.721,-50.696 100.521,-192.013 82.467,-289.758c-7.292,-37.154 -16.321,-51.562 -55.208,-86.979c-25.346,-24.479 -51.562,-43.404 -58.854,-43.404c-19.096,0 -66.146,59.721 -76.042,96.875c-14.408,51.562 -11.804,120.487 7.292,161.979c17.188,38.021 57.117,76.042 78.821,76.042c15.45,0 16.321,10.938 1.737,25.346c-16.321,16.321 -47.05,12.675 -74.304,-8.158c-77.779,-61.633 -92.363,-238.196 -27.083,-336.804c12.675,-19.967 21.7,-36.283 19.967,-38.021c-1.737,-1.737 -17.188,-5.383 -35.242,-9.029c-40.8,-7.292 -54.342,4.513 -80.554,74.304c-25.346,66.146 -27.083,193.75 -5.383,256.25c46.179,126.738 149.304,182.812 222.742,121.354l-0.346,0l-0.008,0.004Zm1858.679,-104.167c22.571,-6.425 40.8,-19.096 52.429,-38.021c20.833,-33.508 19.967,-78.821 -6.425,-259.896c-10.938,-77.779 -15.45,-175.696 -16.321,-387.5l-0.867,-283.333l-85.938,5.383c-78.821,5.383 -85.071,5.383 -72.396,-8.158c8.158,-8.158 42.533,-20.833 76.908,-28.992c87.846,-19.967 85.938,-19.096 85.938,-38.021c0,-14.408 -5.383,-15.45 -51.562,-9.029c-28.992,3.646 -80.554,9.896 -115.971,12.675c-57.988,5.383 -62.5,5.383 -51.562,-8.158c7.292,-8.158 57.988,-25.346 120.488,-39.758c96.008,-21.7 108.679,-27.083 114.062,-46.179c7.292,-28.992 1.738,-30.729 -47.917,-19.096c-97.742,22.571 -208.158,44.446 -225.346,44.446c-58.854,0 134.896,-73.263 249.825,-95.138l32.637,-6.425l18.054,-85.071c10.938,-55.208 14.408,-85.071 8.158,-85.071c-5.383,0 -40.8,9.029 -77.779,19.096c-37.154,9.896 -84.2,22.571 -104.167,27.083c-142.188,35.242 -654.512,205.554 -718.925,239.062c-28.992,14.408 -50.696,63.367 -82.467,180.208c-41.667,154.862 -48.958,221.875 -48.958,408.333c0.867,204.688 19.967,329.513 65.104,421.008c31.771,64.237 57.117,80.554 134.029,90.45c84.2,9.896 705.208,1.737 748.783,-9.896l0.175,0l0.008,-0.004Zm4941.488,-71.529l69.796,0l14.408,-30.729c9.029,-19.967 14.408,-55.208 14.408,-99.654c0,-61.633 -2.779,-72.396 -22.571,-92.363l-21.7,-21.7l-223.612,1.738l-223.612,2.779l-19.096,25.346c-13.542,19.096 -19.967,41.667 -21.7,90.45c-3.646,74.304 7.292,111.283 36.283,123.958c12.675,5.383 82.467,7.292 174.654,4.512c85.071,-2.779 184.721,-4.512 222.742,-4.512l0,0.175Zm-499.821,-169.271c12.675,-67.883 38.887,-109.55 77.779,-125.867c47.05,-19.096 473.437,-18.054 515.104,0.867c37.154,18.054 67.883,71.529 75.175,131.25l5.383,45.312l172.917,0c221.875,-0.867 286.979,-9.029 334.029,-42.533c51.562,-36.283 73.262,-83.333 76.908,-167.533c7.292,-151.217 -73.263,-240.8 -283.333,-312.325c-97.742,-33.508 -230.033,-65.104 -373.092,-89.583c-184.721,-30.729 -167.533,-36.283 -161.113,57.988c5.383,79.688 -4.512,88.717 -17.188,15.45c-3.646,-19.967 -10.938,-51.562 -15.45,-69.792c-8.158,-32.637 -10.938,-34.375 -46.179,-34.375l-37.154,0l6.425,43.404c2.779,23.612 7.292,97.742 9.896,164.758c4.513,128.646 -2.779,123.958 -21.7,-13.542c-6.425,-39.758 -17.188,-100.521 -26.217,-135.763l-15.45,-63.367l-42.533,-2.779l-43.404,-2.779l9.029,177.429l-24.479,-87.846l-24.479,-88.717l-190.104,0c-290.625,0 -508.854,26.217 -686.283,82.467c-201.908,64.237 -286.112,169.271 -277.083,345.833c4.512,91.492 36.283,144.792 108.679,181.946c68.75,34.375 123.092,38.888 542.362,40.8l340.45,0.867l10.938,-51.562l0.175,0l-0.008,-0.008Zm-7020.138,-215.45c75.175,-7.292 186.458,-19.967 248.958,-27.083c62.5,-7.292 155.729,-17.188 208.158,-22.571c52.429,-5.383 132.117,-13.542 176.562,-18.054c45.312,-4.513 123.958,-12.675 176.562,-18.054c201.908,-20.833 259.896,-28.992 300.521,-41.667c30.729,-9.896 83.333,-47.917 194.617,-141.321c83.333,-70.658 192.883,-158.508 242.708,-195.487c93.229,-68.75 104.167,-79.688 104.167,-98.613c0,-36.283 -103.125,23.613 -224.479,129.513c-23.612,19.967 -57.117,46.179 -74.304,57.987c-17.188,11.804 -65.104,51.562 -105.904,87.846c-41.667,36.283 -95.137,76.042 -119.446,88.717c-49.825,24.479 -42.533,23.613 -625.521,90.45c-600.175,67.883 -673.613,77.779 -685.417,93.229c-21.7,26.217 -14.408,38.887 18.054,34.375c15.45,-2.779 90.45,-11.804 164.758,-19.096l0,-0.175l0.004,0.004Zm18.054,-95.137c245.312,-31.771 540.45,-63.367 596.7,-63.367c30.729,0 59.721,-3.646 64.237,-8.158c5.383,-4.513 56.075,-12.675 113.196,-19.096c147.571,-14.408 290.625,-36.283 309.55,-46.179c9.029,-4.512 67.883,-50.696 130.383,-101.387c220.833,-177.429 306.075,-242.708 371.179,-285.242c37.154,-23.613 65.104,-46.179 64.238,-51.562c-1.738,-4.513 -27.083,-20.833 -56.075,-36.283c-96.875,-48.958 -206.425,-38.888 -828.471,77.779c-349.479,64.237 -429.167,79.688 -520.658,95.137c-106.771,18.054 -275.175,51.562 -357.638,70.658c-103.125,23.613 -145.833,98.613 -99.654,174.654c28.992,48.958 33.508,48.958 249.825,20.833c445.488,-58.854 568.575,-73.263 622.05,-70.658l56.075,2.779l-54.342,11.804c-29.862,6.425 -78.821,15.45 -108.679,19.967c-29.862,4.513 -85.071,14.408 -122.221,22.571c-37.154,7.292 -98.613,18.054 -135.763,23.612c-37.154,4.513 -152.95,26.217 -257.988,47.05c-208.158,41.667 -201.908,38.887 -215.45,111.283c-4.513,25.346 -3.646,27.083 19.096,24.479c13.542,-1.737 85.938,-10.938 160.242,-20.833l0.175,0.175l-0.008,-0.017Zm8035.071,-277.95c0,-10.938 -23.612,-28.992 -65.104,-52.429c-36.283,-19.967 -87.846,-53.471 -116.842,-74.304c-46.179,-33.508 -57.117,-47.917 -110.417,-153.992c-95.138,-186.458 -173.783,-280.729 -300.521,-360.417c-146.7,-91.492 -380.208,-168.404 -606.596,-200c-134.896,-19.096 -499.825,-21.7 -669.967,-5.383c-153.992,15.45 -152.95,14.408 -136.633,45.312c34.375,66.146 45.312,132.117 45.312,273.437c0.867,140.279 0.867,141.321 30.729,201.042c18.054,38.021 46.179,75.175 73.263,99.654c75.175,67.883 75.175,67.883 211.804,45.312c203.646,-33.508 292.362,-39.758 528.646,-41.667c129.513,0 228.992,-4.513 228.992,-9.029c0,-4.513 -14.408,-75.175 -32.638,-156.596c-29.862,-134.029 -34.375,-181.946 -13.542,-149.304c3.646,7.292 26.217,76.042 49.825,153.992c23.612,77.779 44.446,146.7 46.179,152.083c1.738,5.383 40.8,15.45 87.846,20.833c218.229,28.125 506.075,109.55 655.554,184.721c92.362,47.917 94.096,47.917 94.096,27.083l0,-0.346l0.012,-0.004Zm18.054,-96.875c0,-12.675 4.513,-25.346 9.896,-28.992c7.292,-3.646 -1.737,-12.675 -21.7,-22.571c-38.888,-20.833 -73.263,-63.367 -93.229,-117.708c-19.096,-49.825 -20.833,-172.05 -4.513,-220.833c27.083,-79.688 80.554,-131.25 135.763,-131.25c41.667,0 26.217,-17.187 -47.05,-50.696l-56.075,-26.217l-232.638,0c-127.604,0 -235.417,3.646 -239.062,7.292c-4.513,4.513 10.938,22.571 32.638,40.8c123.092,100.521 180.208,174.654 255.383,333.158c58.854,122.221 79.688,143.925 206.425,214.583c51.562,28.992 54.342,28.992 54.342,2.779l-0.175,-0.346l-0.004,0Zm83.333,-120.487c76.042,-82.467 82.467,-240.8 11.804,-315.104c-87.846,-94.096 -193.75,48.958 -158.508,215.45c14.408,71.529 58.854,121.354 109.55,123.092c7.292,0.867 24.479,-9.896 37.154,-23.613l0,0.175Zm-6244.271,-166.667c39.758,-14.408 86.979,-30.729 104.167,-35.242c17.188,-4.513 71.529,-22.571 120.488,-40.8c49.825,-17.188 98.613,-31.771 109.55,-31.771c10.938,0 23.613,-3.646 28.992,-8.158c8.158,-9.029 169.271,-57.988 233.508,-70.658c34.375,-7.292 35.242,-8.158 55.208,-79.688c11.804,-39.758 33.508,-105.033 48.958,-143.925c15.45,-39.758 26.217,-73.262 24.479,-76.042c-13.542,-12.675 -567.708,91.492 -790.45,148.438c-143.054,37.154 -355.729,105.033 -398.438,128.646c-31.771,17.188 -205.554,181.946 -199.133,189.238c2.779,1.737 37.154,-0.867 77.779,-6.425c39.758,-6.425 114.929,-9.029 165.625,-7.292c99.654,3.646 163.887,24.479 226.387,74.304l28.992,21.7l45.312,-18.054c25.346,-9.896 78.821,-29.862 118.575,-44.446l0,0.175Zm-842.883,15.45l67.883,-13.542l115.971,-115.971c171.179,-171.179 329.513,-286.113 496.179,-358.508c288.887,-125.867 843.75,-268.054 1285.592,-329.512c167.533,-23.613 201.908,-25.346 461.804,-24.479c311.458,0 553.125,18.054 891.842,67.012c266.146,38.021 419.096,79.688 497.917,135.762c31.771,22.571 88.717,24.479 96.875,2.779c9.896,-24.479 -61.633,-79.688 -144.792,-111.283c-349.479,-134.896 -1378.821,-215.45 -1848.783,-144.792c-69.792,10.938 -152.95,22.571 -185.592,28.125c-62.5,8.158 -261.633,47.05 -321.354,62.5c-19.967,4.512 -68.75,16.321 -108.679,26.217c-39.758,9.029 -84.2,21.7 -99.654,27.083c-14.408,4.512 -67.883,19.967 -117.708,32.637c-210.071,55.208 -403.821,123.958 -536.804,192.012c-139.408,70.658 -180.208,96.875 -291.492,187.325c-77.779,63.367 -287.846,265.279 -327.779,315.971c-30.729,38.887 -29.862,38.887 68.75,20.833l-0.175,-0.175l0,0.004Zm4904.342,-32.638c47.05,-49.825 66.146,-114.929 60.592,-212.675c-4.513,-82.467 -37.154,-165.625 -74.304,-190.104c-42.533,-28.125 -70.658,-26.217 -116.842,9.029c-57.117,43.404 -79.688,89.583 -85.071,176.562c-7.292,96.008 13.542,163.021 65.104,214.583c33.508,33.508 43.404,38.888 76.908,38.888c33.508,0 43.404,-4.513 73.263,-36.283l0.35,0Zm-3278.3,-223.613c2.779,-3.646 10.938,-25.346 17.188,-47.917c28.125,-98.613 129.512,-324.133 182.812,-405.554l19.967,-30.729l-44.446,6.425c-24.479,3.646 -48.958,9.896 -54.342,14.408c-16.321,13.542 -117.708,224.479 -151.217,315.971c-17.188,47.917 -34.375,105.033 -38.021,128.646l-6.425,41.667l33.508,-7.292c19.096,-4.512 37.154,-10.938 40.8,-15.45l0.175,-0.175Zm212.675,-52.429c49.825,-11.804 123.092,-29.863 163.021,-39.758c80.554,-19.967 439.929,-89.583 579.513,-113.196c114.929,-19.096 362.154,-52.429 656.425,-87.846c314.237,-38.021 313.196,-37.154 190.104,-46.179c-135.762,-9.896 -712.5,-0.867 -995.833,16.321c-204.688,11.804 -574.825,43.404 -622.05,53.471c-13.542,3.646 -26.217,19.096 -38.887,47.917c-19.096,42.533 -72.396,189.238 -72.396,198.262c0,2.779 10.938,1.738 25.346,-1.738c13.542,-3.646 65.104,-15.45 114.929,-27.083l-0.175,-0.175l0.004,0.004Z" style="fill:#2da72e;fill-rule:nonzero;"/><path d="M8746.396,1458.575c-26.217,-29.863 -34.375,-56.075 -34.375,-106.771c0,-80.554 39.758,-135.762 81.425,-113.196c9.896,5.383 18.054,14.408 17.188,20.833c0,8.158 -1.737,8.158 -5.383,0c-15.45,-40.8 -66.146,24.479 -66.146,85.938c0,62.5 26.217,99.654 66.146,93.229c3.646,-0.867 2.779,7.292 -2.779,17.188c-11.804,22.571 -38.021,23.613 -56.075,2.779Z" style="fill:#2da72e;fill-rule:nonzero;"/><path d="M6523.65,1272.983c-25.346,-28.992 -36.283,-50.696 -43.404,-95.137c-13.542,-85.071 21.7,-176.562 71.529,-181.946c49.825,-6.425 56.075,5.383 19.096,37.154c-30.729,26.217 -35.242,35.242 -38.888,81.425c-1.737,28.125 -1.737,60.592 1.737,73.262c7.292,28.125 39.758,59.721 61.633,59.721c19.096,0 21.7,18.054 5.383,34.375c-17.188,17.188 -57.117,12.675 -76.908,-9.029l-0.175,0.175l-0.004,0Z" style="fill:#2da72e;fill-rule:nonzero;"/><path d="M5017.229,2612.046c-122.221,-46.179 -219.096,-172.917 -248.092,-328.646c-42.533,-217.362 8.158,-434.55 123.958,-543.229c73.263,-67.012 114.929,-86.979 195.488,-92.362c59.721,-3.646 70.658,-1.737 122.221,23.612c104.167,51.562 187.325,166.667 219.096,305.033c20.833,87.846 19.096,235.417 -4.513,324.133c-33.508,134.029 -114.062,248.092 -204.688,292.363c-59.721,28.992 -152.95,38.021 -203.646,19.096l0.175,0Zm173.783,-65.104c119.446,-60.592 195.487,-201.908 204.688,-380.208c14.408,-293.404 -160.242,-515.971 -360.417,-456.25c-82.467,25.346 -168.404,123.958 -210.071,241.667c-24.479,68.75 -27.083,272.571 -4.513,341.321c47.917,145.833 113.196,226.388 214.583,264.408c39.758,14.408 114.929,9.896 155.729,-10.938Z" style="fill:#2da72e;fill-rule:nonzero;"/><path d="M5043.442,2424.546c-159.375,-84.2 -173.783,-443.575 -23.612,-563.196c33.508,-26.217 44.446,-29.863 94.096,-29.863c67.012,0 94.096,16.321 52.429,31.771c-47.05,18.054 -101.388,70.658 -127.604,125c-21.7,45.312 -24.479,61.633 -25.346,142.188c0,76.042 3.646,97.742 20.833,135.762c25.346,55.208 73.262,105.904 120.487,126.738c41.667,19.096 43.404,25.346 12.675,38.887c-34.375,15.45 -85.938,12.675 -123.958,-7.292l0,0.004Z" style="fill:#2da72e;fill-rule:nonzero;"/></g></g></svg>